#!OML:ASF X:\für Bonn\!DataBase\2005_08_10_Bjorn_Final\c3d\bjorn.ASF
:FULLY-SPECIFIED
:DEGREES
111
root -21.6945 19.4624 0.67118 24.6713 -88.7573 -19.4266
lowerback -13.3013 5.77054 -7.104
upperback 4.78311 9.78933 -8.92787
thorax 13.3329 4.33163 -3.62839
lowerneck -1.671 -9.23735 5.98376
upperneck 15.7723 -13.8808 4.27238
head 4.97633 -6.36422 -0.294075
rclavicle -1.19271e-014 1.24042e-013
rhumerus 37.4572 6.26838 -28.3381
rradius 56.8953
rwrist -30.4654
rhand 2.21527 1.12985
rfingers 7.12502
rthumb 27.7104 -26.8484
lclavicle -1.19271e-014 1.24042e-013
lhumerus -20.0876 20.2515 72.8458
lradius 15.0677
lwrist -36.8363
lhand -17.6559 -5.82407
lfingers 7.12502
lthumb 8.60242 23.9807
rfemur -13.1028 -14.9145 16.5629
rtibia 25.2603
rfoot -8.53264 20.3165
rtoes 1.89919
lfemur -11.7323 14.2652 -16.2946
ltibia 23.8202
lfoot -9.64135 -13.6925
ltoes -2.1601
112
root -21.691 19.4629 0.674252 24.0495 -88.7138 -18.7822
lowerback -13.3062 5.77283 -7.14544
upperback 4.77337 9.79649 -8.89353
thorax 13.3099 4.33047 -3.56491
lowerneck -1.78977 -9.2423 5.88315
upperneck 16.1887 -13.9631 4.39771
head 5.14241 -6.38379 -0.267417
rclavicle 6.91771e-014 -1.20861e-013
rhumerus 37.1618 5.99234 -28.7592
rradius 57.4244
rwrist -30.4834
rhand 2.16549 0.939936
rfingers 7.12502
rthumb 27.6629 -27.046
lclavicle 6.91771e-014 -1.20861e-013
lhumerus -20.1916 20.304 72.8283
lradius 15.0365
lwrist -37.0176
lhand -17.5976 -5.6758
lfingers 7.12502
lthumb 8.65868 24.1266
rfemur -13.1293 -14.8983 16.5597
rtibia 25.2579
rfoot -8.53808 20.2688
rtoes 1.7891
lfemur -11.7823 14.2299 -16.3138
ltibia 23.8335
lfoot -9.64191 -13.6789
ltoes -2.19871
113
root -21.6871 19.4634 0.677467 23.9455 -88.6652 -18.6564
lowerback -13.3049 5.77923 -7.16289
upperback 4.76692 9.8051 -8.86158
thorax 13.2916 4.33232 -3.51727
lowerneck -1.91917 -9.25988 5.82618
upperneck 16.5995 -14.0622 4.49485
head 5.30445 -6.41059 -0.256571
rclavicle -5.80451e-014 5.725e-014
rhumerus 36.8526 5.69179 -29.2402
rradius 57.9802
rwrist -30.4222
rhand 2.08792 0.846159
rfingers 7.12502
rthumb 27.5887 -27.1516
lclavicle -5.80451e-014 5.725e-014
lhumerus -20.2619 20.2898 72.8225
lradius 14.9901
lwrist -37.2094
lhand -17.5421 -5.49722
lfingers 7.12502
lthumb 8.71225 24.303
rfemur -13.1513 -14.8662 16.5715
rtibia 25.2474
rfoot -8.53966 20.2148
rtoes 1.81086
lfemur -11.8322 14.1969 -16.3174
ltibia 23.8529
lfoot -9.63863 -13.6551
ltoes -2.18544
114
root -21.6834 19.464 0.681678 23.8306 -88.6157 -18.5116
lowerback -13.3157 5.7746 -7.17683
upperback 4.75148 9.79863 -8.82579
thorax 13.2692 4.32742 -3.46975
lowerneck -2.06503 -9.26694 5.76058
upperneck 17.07 -14.1592 4.60186
head 5.49018 -6.43315 -0.244632
rclavicle -2.38542e-015 -6.36111e-015
rhumerus 36.5551 5.4134 -29.7144
rradius 58.5754
rwrist -30.3514
rhand 2.03163 0.847815
rfingers 7.12502
rthumb 27.5348 -27.1586
lclavicle -2.38542e-015 -6.36111e-015
lhumerus -20.3544 20.3369 72.7883
lradius 14.927
lwrist -37.5024
lhand -17.4886 -5.31776
lfingers 7.12502
lthumb 8.76385 24.4803
rfemur -13.1849 -14.8706 16.5817
rtibia 25.2323
rfoot -8.54586 20.1809
rtoes 1.68888
lfemur -11.8966 14.1599 -16.3282
ltibia 23.8783
lfoot -9.64278 -13.6444
ltoes -2.21163
115
root -21.6802 19.4648 0.685283 24.6352 -88.5818 -19.2811
lowerback -13.3367 5.78222 -7.16788
upperback 4.73606 9.80724 -8.80147
thorax 13.2601 4.33173 -3.44303
lowerneck -2.22324 -9.27711 5.78332
upperneck 17.5269 -14.2644 4.68481
head 5.66744 -6.45627 -0.253423
rclavicle -3.18055e-014 -6.67916e-014
rhumerus 36.2106 5.13227 -30.2104
rradius 59.2424
rwrist -30.1799
rhand 1.92772 0.950271
rfingers 7.12502
rthumb 27.4355 -27.0719
lclavicle -3.18055e-014 -6.67916e-014
lhumerus -20.4234 20.3584 72.741
lradius 14.858
lwrist -37.8046
lhand -17.4299 -5.16219
lfingers 7.12502
lthumb 8.82046 24.6335
rfemur -13.2154 -14.7917 16.612
rtibia 25.2102
rfoot -8.54595 20.0866
rtoes 1.66666
lfemur -11.9623 14.1496 -16.3199
ltibia 23.9091
lfoot -9.66631 -13.6381
ltoes -2.24778
